<?xml version="1.0" standalone="no"?>
<!DOCTYPE svg PUBLIC "-//W3C//DTD SVG 20010904//EN"
 "http://www.w3.org/TR/2001/REC-SVG-20010904/DTD/svg10.dtd">
<svg version="1.0" xmlns="http://www.w3.org/2000/svg"
 width="300.000000pt" height="300.000000pt" viewBox="0 0 300.000000 300.000000"
 preserveAspectRatio="xMidYMid meet">
<metadata>
Created by potrace 1.10, written by Peter Selinger 2001-2011
</metadata>
<g transform="translate(0.000000,300.000000) scale(0.100000,-0.100000)"
fill="#000000" stroke="none">
<path d="M1160 2096 c0 -2 11 -24 25 -47 22 -39 25 -56 25 -146 l0 -102 76
-98 76 -97 -4 62 c-1 34 -1 62 2 62 3 0 34 -58 70 -130 36 -71 67 -129 70
-129 3 -1 35 58 73 130 l67 131 0 -99 0 -100 -66 -84 c-36 -46 -68 -85 -72
-86 -4 -2 -106 123 -227 277 l-220 280 -93 0 -93 0 20 -28 c11 -16 27 -35 36
-42 13 -11 15 -56 15 -337 l0 -325 -35 -42 c-19 -24 -35 -45 -35 -47 0 -2 65
-4 145 -4 80 0 145 2 145 4 0 2 -16 23 -35 46 l-34 42 -3 227 c-2 124 0 226 5
226 4 0 7 -3 7 -7 0 -5 25 -39 55 -77 l55 -69 0 -249 0 -250 -36 -44 -36 -44
146 0 c80 0 146 3 146 6 0 3 -16 24 -35 47 l-35 41 0 153 0 154 68 -90 c37
-50 69 -90 72 -90 3 0 35 40 73 90 l67 90 0 -154 0 -153 -35 -41 c-19 -23 -35
-44 -35 -47 0 -3 66 -6 146 -6 l146 0 -36 44 -36 44 0 509 0 508 25 44 c14 23
25 45 25 47 0 2 -37 4 -83 4 l-83 0 -37 -72 c-20 -40 -59 -115 -86 -165 l-50
-93 -88 165 -88 165 -82 0 c-46 0 -83 -2 -83 -4z m188 -123 c28 -49 65 -114
83 -146 63 -110 88 -100 178 69 93 173 87 166 124 162 26 -2 31 -7 27 -23 -9
-34 -5 -1049 3 -1072 8 -22 6 -23 -48 -23 l-57 0 9 33 c4 17 8 94 8 169 0 130
-1 139 -23 160 l-22 23 -66 -70 -66 -70 -25 30 c-74 89 -83 96 -105 93 -40 -6
-49 -41 -45 -188 2 -74 7 -145 12 -158 7 -22 6 -23 -46 -20 -48 3 -54 5 -50
23 3 11 6 133 8 271 l4 250 -28 41 c-60 86 -113 136 -136 128 -32 -13 -38 -56
-34 -266 2 -112 6 -215 8 -228 4 -24 2 -25 -46 -22 -27 1 -52 4 -54 7 -2 2 2
16 8 31 13 33 11 643 -3 681 -8 20 -6 22 32 22 31 0 44 -6 61 -27 229 -292
402 -501 424 -513 28 -15 29 -14 78 39 28 30 66 77 85 105 30 45 34 58 34 119
0 72 -20 137 -43 137 -20 0 -51 -36 -89 -105 -19 -33 -40 -60 -48 -60 -8 0
-26 22 -39 48 -14 27 -39 65 -57 85 -29 33 -35 36 -53 25 -28 -17 -25 -19 -63
29 -31 40 -33 46 -39 152 -3 61 -9 119 -13 129 -7 14 -3 17 27 17 34 0 37 -3
85 -87z"/>
<path d="M1892 1851 l-53 -70 -3 -122 c-4 -134 -3 -135 51 -46 10 15 20 27 23
27 3 0 4 -102 2 -226 l-3 -227 -34 -42 c-19 -23 -35 -44 -35 -46 0 -2 65 -4
145 -4 80 0 145 2 145 4 0 2 -16 23 -35 47 l-35 42 0 325 c0 281 2 326 15 337
9 7 25 26 36 42 l20 28 -93 0 -93 0 -53 -69z m142 7 c-5 -13 -9 -169 -9 -348
0 -179 4 -335 9 -347 8 -22 6 -23 -49 -23 -51 0 -56 2 -49 18 5 9 10 112 12
229 3 178 1 217 -13 242 -9 18 -23 31 -35 31 -44 0 -36 91 14 159 41 55 47 59
95 60 31 1 33 -1 25 -21z"/>
</g>
</svg>
